<svg width="27" height="32" viewBox="0 0 27 32" fill="none" xmlns="http://www.w3.org/2000/svg">
<path d="M9.39377 4.00004C10.7213 3.77337 12.1275 5.49337 12.5325 7.8667C12.9375 10.2267 12.2063 12.3334 10.8788 12.5734C9.56252 12.8134 8.14502 11.0934 7.72877 8.72004C7.31252 6.36004 8.06627 4.25337 9.39377 4.00004ZM17.4375 4.00004C18.7763 4.25337 19.5188 6.36004 19.125 8.72004C18.6975 11.0934 17.2913 12.8134 15.9638 12.5734C14.625 12.3334 13.8938 10.2267 14.31 7.8667C14.715 5.49337 16.1213 3.77337 17.4375 4.00004ZM3.37502 10.1334C4.65752 9.48004 6.40127 10.6667 7.31252 12.7334C8.16752 14.84 7.87502 17.0534 6.60377 17.7067C5.33252 18.36 3.60002 17.1867 2.71127 15.0934C1.82252 13 2.13752 10.7734 3.37502 10.1334ZM23.625 10.1334C24.8625 10.7734 25.1775 13 24.2888 15.0934C23.4 17.1867 21.6675 18.36 20.3963 17.7067C19.125 17.0534 18.8325 14.84 19.6875 12.7334C20.5988 10.6667 22.3425 9.48004 23.625 10.1334ZM21.7463 24.5067C21.7913 25.76 20.9813 27.1467 20.0138 27.6667C18 28.76 15.615 26.4934 13.3763 26.4934C11.1375 26.4934 8.73002 28.8534 6.75002 27.6667C5.62502 27.0134 4.84877 25.28 4.99502 23.84C5.19752 21.8534 7.21127 20.7867 8.40377 19.3334C9.99002 17.4534 11.115 13.92 13.3763 13.92C15.6263 13.92 16.8188 17.4 18.3375 19.3334C19.5863 20.96 21.6675 22.3334 21.7463 24.5067Z" fill="#382C3A"/>
</svg>
